<svg xmlns="http://www.w3.org/2000/svg" width="10" height="12.857" viewBox="0 0 10 12.857"><defs><style>.a{fill:#fff;fill-rule:evenodd;}</style></defs><g transform="translate(-6 -3)"><g transform="translate(6 3)"><path class="a" d="M10.762,12.007v1.235a.238.238,0,0,0,.476,0V12.007a.714.714,0,1,0-.476,0ZM7.429,8.238V6.571a3.571,3.571,0,0,1,7.143,0V8.238A1.432,1.432,0,0,1,16,9.671v4.753a1.43,1.43,0,0,1-1.433,1.433H7.433A1.432,1.432,0,0,1,6,14.424V9.671A1.43,1.43,0,0,1,7.429,8.238Zm1.429,0V6.572a2.143,2.143,0,1,1,4.286,0V8.238Z" transform="translate(-6 -3)"/></g></g></svg>